<svg width="30" height="32" viewBox="0 0 30 32" fill="none" xmlns="http://www.w3.org/2000/svg">
    <path d="M25.1972 16C25.8019 15.4205 26.3533 14.8388 26.8423 14.261C28.9999 11.7113 29.7152 9.48779 28.8563 8C28.1886 6.84351 26.6669 6.28235 24.4574 6.37692C23.1763 6.4318 21.7 6.70209 20.0986 7.16929C19.8991 6.35574 19.6711 5.5872 19.4151 4.87476C18.2859 1.7312 16.7178 0 14.9999 0C13.8541 0 12.7567 0.776374 11.8267 2.24531C11.0565 3.46158 10.3956 5.15643 9.90262 7.16929C9.09799 6.93515 8.318 6.74832 7.57274 6.61372C4.28587 6.01988 2.0025 6.5122 1.14354 8C0.284575 9.48779 0.999877 11.7113 3.15756 14.261C3.64648 14.8388 4.1979 15.4205 4.80263 16C4.1979 16.5795 3.64648 17.1612 3.15756 17.739C0.999877 20.2887 0.284575 22.5122 1.14354 24C1.71647 24.9923 2.93751 25.5544 4.67463 25.6255C4.80223 25.6308 4.9324 25.6334 5.06551 25.6334C6.4332 25.6334 8.08767 25.358 9.90098 24.8299C10.1005 25.6438 10.3287 26.4127 10.5847 27.1253C11.714 30.2688 13.2821 32 14.9999 32C16.7178 32 18.2859 30.2688 19.4152 27.1252C19.6711 26.4128 19.8992 25.6443 20.0987 24.8307C21.7001 25.2978 23.1764 25.5682 24.4574 25.623C24.6176 25.6299 24.7738 25.6333 24.9265 25.6333C26.8832 25.6332 28.2371 25.0726 28.8564 23.9999C29.7154 22.5121 29.0001 20.2886 26.8424 17.7389C26.3533 17.1612 25.8019 16.5795 25.1972 16ZM27.9719 8.51064C28.5901 9.58155 27.8942 11.437 26.0627 13.6014C25.5838 14.1672 25.042 14.7376 24.446 15.3061C23.3993 14.3728 22.2198 13.452 20.9402 12.5703C20.8167 11.0228 20.6093 9.5422 20.3247 8.17014C24.1851 7.04041 27.1736 7.1281 27.9719 8.51064ZM15.0004 21.7246C14.1556 21.3104 13.3065 20.8579 12.473 20.3768C11.6314 19.8909 10.8188 19.3841 10.0418 18.8626C9.97874 17.929 9.94612 16.9718 9.94612 16C9.94612 15.0289 9.97969 14.0731 10.0433 13.1363C10.8199 12.6152 11.632 12.1088 12.473 11.6232C13.307 11.1417 14.1563 10.6892 15.0008 10.2752C15.8407 10.6873 16.6856 11.1375 17.5269 11.6232C18.3684 12.1091 19.181 12.6159 19.958 13.1374C20.0211 14.071 20.0537 15.0282 20.0537 16C20.0537 16.9718 20.0211 17.9289 19.958 18.8626C19.181 19.384 18.3684 19.8909 17.5269 20.3768C16.6867 20.8618 15.8429 21.3116 15.0004 21.7246ZM8.97625 18.1223C8.01537 17.4307 7.12066 16.7189 6.30895 16C7.12107 15.2808 8.01611 14.5688 8.97748 13.8768C8.94357 14.5761 8.92485 15.2839 8.92485 16C8.92485 16.7158 8.94248 17.4243 8.97625 18.1223ZM21.0236 13.8777C21.9845 14.5693 22.8792 15.2811 23.6909 16C22.8792 16.7189 21.9845 17.4306 21.0236 18.1223C21.0574 17.4243 21.075 16.7158 21.075 16C21.075 15.2842 21.0574 14.5757 21.0236 13.8777ZM14.9999 1.02128C16.2364 1.02128 17.4954 2.55169 18.454 5.22002C18.7047 5.91789 18.9278 6.67275 19.1222 7.47363C18.5037 7.6783 17.87 7.90938 17.2237 8.16776C16.9618 8.27248 16.8344 8.5696 16.9391 8.83146C17.0438 9.09338 17.3408 9.22077 17.6028 9.11605C18.1967 8.87857 18.7789 8.6656 19.346 8.47666C19.5624 9.53818 19.7312 10.6677 19.8496 11.8445C19.2621 11.4662 18.6573 11.0968 18.0374 10.7389C15.6212 9.3438 13.168 8.22904 10.8792 7.47295C11.8344 3.5375 13.4316 1.02128 14.9999 1.02128ZM3.9372 13.6014C2.10558 11.437 1.40975 9.58155 2.02803 8.51064C2.64624 7.4398 4.60103 7.11455 7.39123 7.61866C9.34452 7.97147 11.5505 8.69692 13.8264 9.72228C13.202 10.0435 12.578 10.3834 11.9624 10.7388C11.3434 11.0962 10.7396 11.4651 10.1528 11.8427C10.2192 11.1883 10.2999 10.5441 10.3981 9.91455C10.4416 9.63588 10.2509 9.37477 9.97227 9.33134C9.69414 9.28776 9.43249 9.47847 9.38905 9.75714C9.24675 10.6691 9.13843 11.6091 9.06136 12.5691C7.78108 13.4511 6.60103 14.3723 5.55382 15.306C4.95787 14.7375 4.41598 14.1671 3.9372 13.6014ZM2.02803 23.4894C1.40975 22.4184 2.10565 20.563 3.9372 18.3986C4.41605 17.8328 4.95787 17.2624 5.55389 16.6939C6.60063 17.6272 7.78006 18.548 9.05966 19.4296C9.1833 20.978 9.39082 22.4592 9.67555 23.8319C5.78994 24.9723 2.81223 24.8476 2.02803 23.4894ZM18.454 26.78C17.4954 29.4483 16.2364 30.9787 14.9999 30.9787C13.7635 30.9787 12.5045 29.4483 11.5459 26.78C10.8749 24.9121 10.4002 22.639 10.1502 20.1555C10.7377 20.5338 11.3425 20.9032 11.9624 21.2611C12.5773 21.6162 13.2009 21.9559 13.8251 22.277C13.2246 22.5471 12.6258 22.798 12.0308 23.028C11.7677 23.1297 11.6369 23.4254 11.7386 23.6884C11.8168 23.891 12.0101 24.0151 12.215 24.0151C12.2761 24.0151 12.3384 24.004 12.399 23.9807C14.2629 23.2602 16.1599 22.3453 18.0375 21.2612C18.6574 20.9033 19.2621 20.5339 19.8497 20.1556C19.7312 21.3324 19.5625 22.462 19.3461 23.5234C18.7791 23.3345 18.1969 23.1215 17.6029 22.8841C17.3411 22.7794 17.0439 22.9068 16.9392 23.1687C16.8345 23.4306 16.962 23.7277 17.2238 23.8324C17.8701 24.0908 18.5038 24.3218 19.1223 24.5265C18.9278 25.3272 18.7047 26.0821 18.454 26.78ZM27.9719 23.4894C27.1737 24.8718 24.1852 24.9596 20.3247 23.8299C20.6093 22.4577 20.8167 20.9772 20.9402 19.4296C22.2198 18.548 23.3993 17.6273 24.446 16.6939C25.042 17.2625 25.5838 17.8329 26.0627 18.3986C27.8943 20.563 28.5901 22.4184 27.9719 23.4894Z" fill="url(#paint0_linear_128_578)"/>
    <defs>
        <linearGradient id="paint0_linear_128_578" x1="15" y1="0" x2="15" y2="32" gradientUnits="userSpaceOnUse">
            <stop stop-color="#23AF47"/>
            <stop offset="1" stop-color="#767CF5"/>
        </linearGradient>
    </defs>
</svg>
